:SAMPLES-PER-SECOND 30
:FULLY-SPECIFIED
:DEGREES
119
root  -0.801032 38.7825 1.77039 -174.297 -76.9857 167.095
RightUpLeg  -7.47283 -15.8121 -10.5481
RightLeg  58.9961 4.11489 6.94873
RightFoot  -2.14761 -1.01372 12.3743
RightToes  2.96859e-009 0 -3.6325e-017
Spine  10.5722 1.87227 -2.33613
Spine1  8.98572 2.56346 -5.85305
HEad  -8.01761 7.76426 -2.91378
LeftShoulder1  -0.448404 4.73533 -30.2619
LeftArm  -2.63449 17.1214 -35.4489
LeftForeArm  31.9012 -6.83748 -8.97076
LeftHand  -0.0362983 5.92505 -0.374754
RightShoulder  -0.653695 -5.44656 26.9542
RightArm  17.278 -2.51987 50.2948
RightForeArm  10.539 24.8735 4.77434
RightHand  -0.363433 1.77406 -6.03872
LeftUpLeg  -7.17899 7.52463 -5.63857
LeftLeg  23.5887 4.48736 2.44096
LeftFoot  -8.42571 -0.126009 6.94778
LeftToes  3.24686e-010 -7.02549e-012 1.39809e-011
120
root  -1.61001 39.053 1.32675 -176.288 -77.9702 169.445
RightUpLeg  -10.0914 -15.5546 -10.4679
RightLeg  54.4173 3.3529 4.63287
RightFoot  -2.69104 -0.771793 9.9384
RightToes  2.96859e-009 0 -3.6325e-017
Spine  10.3727 1.59772 -2.08917
Spine1  9.0842 2.22066 -5.25378
HEad  -7.28764 7.27218 -2.9331
LeftShoulder1  -0.463337 4.77767 -30.2222
LeftArm  -2.48567 18.404 -35.3523
LeftForeArm  30.0899 -8.14634 -8.65202
LeftHand  -0.0311607 4.83524 0.0392068
RightShoulder  -0.670363 -5.50731 26.7733
RightArm  16.6752 -2.378 49.6269
RightForeArm  10.6511 24.5076 4.68881
RightHand  -0.273905 1.12454 -5.01313
LeftUpLeg  -4.78583 7.00258 -4.28317
LeftLeg  21.2845 4.02429 1.82168
LeftFoot  -8.76666 -0.0941305 6.53212
LeftToes  3.24686e-010 -7.02549e-012 1.39809e-011
121
root  -2.36755 39.2336 0.87499 -178.431 -79.5888 172.227
RightUpLeg  -11.8275 -14.9996 -10.3435
RightLeg  46.8771 3.65457 3.8212
RightFoot  -3.44509 -0.65604 9.15833
RightToes  2.96859e-009 0 -3.6325e-017
Spine  10.2631 1.07674 -1.90055
Spine1  8.75675 1.56176 -4.48002
HEad  -7.11188 7.3678 -2.55291
LeftShoulder1  -0.444985 4.73848 -29.8883
LeftArm  -3.65603 18.61 -36.2407
LeftForeArm  30.018 -8.30072 -8.1747
LeftHand  -0.0570623 6.58813 -2.02818
RightShoulder  -0.680004 -5.5267 26.9349
RightArm  15.9141 -2.39279 48.7789
RightForeArm  10.1358 23.9363 4.59162
RightHand  -0.306193 1.57991 -5.25816
LeftUpLeg  -3.17997 6.51693 -2.88998
LeftLeg  19.6134 2.85527 1.19809
LeftFoot  -9.31299 -0.0556101 6.30815
LeftToes  3.24686e-010 -7.02549e-012 1.39809e-011
122
root  -3.15026 39.3608 0.421097 -178.994 -80.8708 172.956
RightUpLeg  -11.8891 -13.6311 -11.0749
RightLeg  36.8036 4.33014 3.23545
RightFoot  -3.88992 -0.644331 9.46352
RightToes  2.96859e-009 0 -3.6325e-017
Spine  10.4953 0.797826 -1.54319
Spine1  8.54033 1.30592 -4.37389
HEad  -7.35476 7.34892 -2.71877
LeftShoulder1  -0.441109 4.7277 -29.8849
LeftArm  -4.1956 17.2733 -36.8187
LeftForeArm  30.1924 -7.85229 -8.11232
LeftHand  -0.0667414 6.81139 -2.17859
RightShoulder  -0.659007 -5.47338 26.7661
RightArm  14.1778 -3.20057 47.9447
RightForeArm  11.2096 23.9464 4.53713
RightHand  -0.288535 1.77103 -4.8429
LeftUpLeg  -1.16343 6.62926 -1.86525
LeftLeg  18.0453 1.46717 0.629427
LeftFoot  -9.80853 -0.0223857 6.07805
LeftToes  3.24686e-010 -7.02549e-012 1.39809e-011
123
root  -3.93831 39.4232 -0.0864582 -175.576 -82.3749 169.928
RightUpLeg  -11.4539 -12.113 -12.397
RightLeg  25.5721 3.32424 1.59438
RightFoot  -3.52422 -0.678919 9.56301
RightToes  2.96859e-009 0 -3.6325e-017
Spine  10.1093 0.518057 -1.66063
Spine1  8.8665 1.05282 -4.20503
HEad  -7.74279 7.34648 -2.72016
LeftShoulder1  -0.479068 4.82811 -30.0223
LeftArm  -4.47235 14.6813 -37.4826
LeftForeArm  30.9814 -7.31007 -8.18526
LeftHand  -0.0522008 6.63924 -1.38714
RightShoulder  -0.707021 -5.59153 27.201
RightArm  13.2768 -3.43304 47.0002
RightForeArm  11.1275 23.1915 4.39449
RightHand  -0.284456 1.75118 -4.78848
LeftUpLeg  0.523744 6.7696 -1.2258
LeftLeg  16.5048 -0.476159 -0.0479455
LeftFoot  -10.3775 0.0149199 5.64306
LeftToes  3.24686e-010 -7.02549e-012 1.39809e-011
124
root  -4.75966 39.4511 -0.646159 -168.809 -83.3102 163.738
RightUpLeg  -11.1165 -10.4385 -13.9656
RightLeg  14.8176 0.804975 -0.1165
RightFoot  -3.51735 -0.662656 9.32313
RightToes  2.96859e-009 0 -3.6325e-017
Spine  9.46242 0.466873 -1.69274
Spine1  9.1334 1.15954 -4.41678
HEad  -7.75539 6.06865 -2.33393
LeftShoulder1  -0.464513 4.78856 -29.9914
LeftArm  -4.77103 11.9156 -38.2744
LeftForeArm  31.4639 -7.10542 -8.17188
LeftHand  -0.0637601 6.6343 -1.8949
RightShoulder  -0.734694 -5.6649 27.3449
RightArm  12.7204 -3.985 46.713
RightForeArm  11.0108 21.9934 4.245
RightHand  -0.263868 1.4282 -4.64843
LeftUpLeg  2.24252 7.3431 -0.559286
LeftLeg  14.6708 -2.39499 -0.886887
LeftFoot  -10.8351 0.043087 5.01498
LeftToes  3.24686e-010 -7.02549e-012 1.39809e-011
125
root  -5.58907 39.4625 -1.23389 -158.933 -84.3789 154.378
RightUpLeg  -10.7606 -11.2252 -15.1403
RightLeg  5.50733 0.889585 -1.31469
RightFoot  -3.3551 -0.613288 8.43693
RightToes  2.96859e-009 0 -3.6325e-017
Spine  9.19688 0.323527 -1.70227
Spine1  8.93851 1.0553 -4.2365
HEad  -7.66047 5.494 -2.63992
LeftShoulder1  -0.520955 4.93288 -30.3008
LeftArm  -4.83518 9.10939 -38.93
LeftForeArm  31.2106 -7.66882 -8.07491
LeftHand  -0.134178 8.50744 -3.34522
RightShoulder  -0.699618 -5.58187 27.0005
RightArm  12.1693 -4.7261 46.9205
RightForeArm  11.1627 20.2148 4.16347
RightHand  -0.241622 0.727178 -4.70118
LeftUpLeg  4.0606 7.76149 0.219279
LeftLeg  12.7263 -4.64272 -1.65899
LeftFoot  -11.2166 0.062932 4.26898
LeftToes  3.24686e-010 -7.02549e-012 1.39809e-011
126
root  -6.42287 39.3859 -1.86626 -141.262 -85.1826 137.388
RightUpLeg  -11.3753 -13.6015 -16.0916
RightLeg  -0.954434 5.12614 -2.33869
RightFoot  -3.73576 -0.580373 8.33916
RightToes  2.96859e-009 0 -3.6325e-017
Spine  8.99969 0.0946202 -1.6694
Spine1  8.48259 0.968883 -4.5126
HEad  -7.67382 5.32262 -2.67966
LeftShoulder1  -0.484744 4.83936 -30.1372
LeftArm  -4.3774 7.12424 -39.9421
LeftForeArm  27.863 -9.90798 -7.73526
LeftHand  -0.122171 9.28854 -2.00071
RightShoulder  -0.700864 -5.56804 27.2814
RightArm  11.4155 -5.38762 46.7711
RightForeArm  11.2029 18.1375 4.22794
RightHand  -0.287314 2.08148 -4.65867
LeftUpLeg  5.16026 7.86785 0.633045
LeftLeg  11.7018 -6.60679 -2.13616
LeftFoot  -11.8394 0.0858319 3.45166
LeftToes  3.24686e-010 -7.02549e-012 1.39809e-011
127
root  -7.29027 39.2249 -2.58327 -118.336 -85.6774 115.003
RightUpLeg  -12.2249 -14.2324 -17.0745
RightLeg  -4.2651 9.83743 -3.29828
RightFoot  -5.07212 -0.551003 9.45709
RightToes  2.96859e-009 0 -3.6325e-017
Spine  9.05632 -0.203091 -1.62103
Spine1  8.11643 0.750312 -4.71883
HEad  -8.13229 4.37565 -3.12137
LeftShoulder1  -0.576022 5.07664 -30.471
LeftArm  -3.85315 5.03435 -41.0069
LeftForeArm  25.2819 -12.2184 -6.97675
LeftHand  -0.0263614 5.02737 -0.994144
RightShoulder  -0.664688 -5.47698 26.9987
RightArm  9.7458 -6.19099 47.1491
RightForeArm  12.317 16.4354 4.22758
RightHand  -0.274336 0.905223 -5.15473
LeftUpLeg  5.78797 7.90539 1.25388
LeftLeg  11.9308 -8.65155 -2.329
LeftFoot  -13.0236 0.115736 2.56302
LeftToes  3.24686e-010 -7.02549e-012 1.39809e-011
128
root  -8.16715 39.0338 -3.38568 -94.4761 -85.4855 91.7137
RightUpLeg  -13.8234 -14.6929 -17.6758
RightLeg  -3.36435 13.9165 -3.81862
RightFoot  -6.29169 -0.510477 10.5591
RightToes  2.96859e-009 0 -3.6325e-017
Spine  9.16807 -0.345001 -1.59622
Spine1  7.9219 0.618402 -4.72601
HEad  -8.79065 3.39387 -3.62502
LeftShoulder1  -0.589601 5.10602 -30.6473
LeftArm  -2.16696 3.5586 -42.605
LeftForeArm  19.889 -16.0104 -5.71636
LeftHand  -0.0257555 4.29912 0.399347
RightShoulder  -0.6999 -5.55301 27.4851
RightArm  9.02087 -6.49232 46.6083
RightForeArm  12.5173 15.0341 4.30208
RightHand  -0.295395 1.27917 -5.28635
LeftUpLeg  6.30625 7.91047 2.0692
LeftLeg  12.2641 -10.6757 -2.38189
LeftFoot  -14.2253 0.124019 1.52842
LeftToes  3.24686e-010 -7.02549e-012 1.39809e-011
